<mxfile type="github" version="12.1.7" host="www.draw.io" modified="2019-10-28T03:37:33.231Z" agent="Mozilla/5.0 (Windows NT 10.0; Win64; x64) AppleWebKit/537.36 (KHTML, like Gecko) Chrome/64.0.3282.140 Safari/537.36 Edge/18.17763" etag="mDzWqOOA-16zmTxybPw1" pages="1">
  <diagram id="jTZAZJjFWtf-VRuI2Loa" name="Page-1">
    <mxGraphModel grid="1" dx="1728" dy="818" gridSize="10" guides="1" tooltips="1" connect="1" arrows="1" fold="1" page="1" pageScale="1" pageWidth="827" pageHeight="1169" math="0" shadow="0">
      <root>
        <mxCell id="0"/>
        <mxCell id="1" parent="0"/>
        <mxCell id="CkEfV53mXyZ0E1vWoYt8-1" value="" parent="1" style="rounded=1;whiteSpace=wrap;html=1;" vertex="1">
          <mxGeometry as="geometry" x="110" y="170" width="290" height="410"/>
        </mxCell>
        <mxCell id="CkEfV53mXyZ0E1vWoYt8-2" value="&lt;h1&gt;Order Center Node&lt;/h1&gt;&lt;p&gt;CPU: Memory: Type: Capacity: Cost:&amp;nbsp;&lt;br&gt;&lt;/p&gt;" parent="1" style="text;html=1;strokeColor=none;fillColor=none;spacing=5;spacingTop=-20;whiteSpace=wrap;overflow=hidden;rounded=0;" vertex="1">
          <mxGeometry as="geometry" x="125" y="180" width="225" height="120"/>
        </mxCell>
        <mxCell id="CkEfV53mXyZ0E1vWoYt8-3" value="Pod: Biz Container:&amp;nbsp;" parent="1" style="rounded=1;whiteSpace=wrap;html=1;" vertex="1">
          <mxGeometry as="geometry" x="125" y="310" width="265" height="250"/>
        </mxCell>
      </root>
    </mxGraphModel>
  </diagram>
</mxfile>
